<svg version="1.1" xmlns="http://www.w3.org/2000/svg" xmlns:xlink="http://www.w3.org/1999/xlink" width="98" height="181.33333" viewBox="0,0,98,181.33333"><g transform="translate(-191,-132)"><g data-paper-data="{&quot;isPaintingLayer&quot;:true}" fill-rule="nonzero" stroke="#000000" stroke-width="2" stroke-linecap="butt" stroke-linejoin="miter" stroke-miterlimit="10" stroke-dasharray="" stroke-dashoffset="0" style="mix-blend-mode: normal"><path d="M217,312.33333v-98h45.5v98z" fill="#9966ff"></path><path d="M288,180c0,2.34525 -0.17543,4.65037 -0.51414,6.90349c-5.82695,1.54245 -11.76454,3.92179 -16.62968,3.76318c-1.37325,-0.04477 -6.54283,-8.28869 -8.26601,-9.38525c-10.75076,-6.84139 -22.29863,-3.1667 -30.47038,5.00505c-1.15564,1.15564 -4.3487,3.26413 -5.00505,4.79004c-0.52837,1.22839 -0.87123,9.43789 -0.55902,10.06231c0.1115,0.22301 7.61095,5.49008 8.38525,5.59017c7.90633,1.02198 9.27119,-8.67981 15.6519,-8.56231c0.16239,0.00299 2.81339,3.6417 3.0394,3.86772c2.87891,2.87891 6.86801,7.39299 10.71607,8.355c4.43148,1.10787 8.55223,0.60247 12.57739,-0.35899c-8.8047,10.36851 -22.07793,16.9696 -36.92574,16.9696c-26.50967,0 -48,-21.04262 -48,-47c0,-25.95738 21.49033,-47 48,-47c26.50967,0 48,21.04262 48,47z" fill="#9966ff"></path><path d="M227.5,168.33333c0,3.58985 -3.46979,6.5 -7.75,6.5c-4.28021,0 -7.75,-2.91015 -7.75,-6.5c0,-3.58985 3.46979,-6.5 7.75,-6.5c4.28021,0 7.75,2.91015 7.75,6.5z" fill="#000000"></path></g></g></svg>